# xmcd CD database file
#
# Track frame offsets:
#	150
#	14922
#	27997
#	39172
#	61387
#	77835
#	89310
#	113787
#	127137
#	149615
#	165277
#	180087
#	200377
#	216622
#	230895
#	246667
#	261727
#	277505
#	294260
#	309487
#
# Disc length: 4407 seconds
#
# Revision: 2
# Processed by: cddbd v1.5.1PL0 Copyright (c) Steve Scherf et al.
# Submitted via: CDex 1.51
#
DISCID=2b113514
DTITLE=Various Artist - Living The Blues - Blues Classics: The '70s
DYEAR=1997
DGENRE=Blues
TTITLE0=Bobby Bland - I Wouldn't Treat  Dog (The Way You Treated Me)
TTITLE1=Ted Taylor - Something Strange Is Going On In My House
TTITLE2=Ann Peebles - (I FeelLike) Breaking Up Somebody's Home
TTITLE3=B. B. King - Chaines And Things
TTITLE4=Albert King - I'll Play the Blues For You (Part 1)
TTITLE5=Little Milton - I Play Dirty
TTITLE6=Otis Rush - Right Place, Wrong Time
TTITLE7=Fenton Robinson - Somebody Loan Me A Dime
TTITLE8=Son Seals - On My Knees
TTITLE9=Latimore - Let's Straighten It Out
TTITLE10=Etta James - W.O.M.A.N.
TTITLE11=Chick Wills - Stoop Down Baby
TTITLE12=Hound Dog Taylor - Give Me Back My Wig
TTITLE13=Albert Collins - Ice Pick
TTITLE14=Johnnie Taylor - Cheaper To Keep Her
TTITLE15=Little Johnny Taylor - Everybody Knows About My Good Thing
TTITLE16=B. B. King - I Like To Live The Love
TTITLE17=Lonnie Brooks - Watchdog
TTITLE18=Z. Z. Hill - I Need Someone (To Love Me)
TTITLE19=Calvin Leavy - Cummins Prison Farm
EXTD=YEAR: 1997
EXTT0=
EXTT1=
EXTT2=
EXTT3=
EXTT4=
EXTT5=
EXTT6=
EXTT7=
EXTT8=
EXTT9=
EXTT10=
EXTT11=
EXTT12=
EXTT13=
EXTT14=
EXTT15=
EXTT16=
EXTT17=
EXTT18=
EXTT19=
PLAYORDER=
